<?xml version="1.0" encoding="UTF-8" standalone="no"?>
<!DOCTYPE svg PUBLIC "-//W3C//DTD SVG 1.1//EN"
 "http://www.w3.org/Graphics/SVG/1.1/DTD/svg11.dtd">
<!-- Generated by graphviz version 12.1.1 (20240910.0053)
 -->
<!-- Pages: 1 -->
<svg width="1121pt" height="128pt"
 viewBox="0.00 0.00 1121.00 128.00" xmlns="http://www.w3.org/2000/svg" xmlns:xlink="http://www.w3.org/1999/xlink">
<g id="graph0" class="graph" transform="scale(1 1) rotate(0) translate(4 124)">
<polygon fill="white" stroke="none" points="-4,4 -4,-124 1117,-124 1117,4 -4,4"/>
<!-- 2650329067600 -->
<g id="node1" class="node">
<title>2650329067600</title>
<polygon fill="none" stroke="black" points="625.12,-82.5 625.12,-118.5 803.62,-118.5 803.62,-82.5 625.12,-82.5"/>
<text text-anchor="middle" x="635.38" y="-95.7" font-family="Times New Roman,serif" font-size="14.00">f</text>
<polyline fill="none" stroke="black" points="645.62,-83 645.62,-118.5"/>
<text text-anchor="middle" x="685.88" y="-95.7" font-family="Times New Roman,serif" font-size="14.00">data&#45;2.0000</text>
<polyline fill="none" stroke="black" points="726.12,-83 726.12,-118.5"/>
<text text-anchor="middle" x="764.88" y="-95.7" font-family="Times New Roman,serif" font-size="14.00">grad4.0000</text>
</g>
<!-- 2650329066448* -->
<g id="node9" class="node">
<title>2650329066448*</title>
<ellipse fill="none" stroke="black" cx="867.75" cy="-72.5" rx="27" ry="18"/>
<text text-anchor="middle" x="867.75" y="-67.45" font-family="Times New Roman,serif" font-size="14.00">*</text>
</g>
<!-- 2650329067600&#45;&gt;2650329066448* -->
<g id="edge8" class="edge">
<title>2650329067600&#45;&gt;2650329066448*</title>
<path fill="none" stroke="black" d="M803.87,-84.13C813.08,-82.43 822.04,-80.77 830.16,-79.27"/>
<polygon fill="black" stroke="black" points="830.73,-82.72 839.92,-77.46 829.45,-75.84 830.73,-82.72"/>
</g>
<!-- 2650329065584 -->
<g id="node2" class="node">
<title>2650329065584</title>
<polygon fill="none" stroke="black" points="4.88,-83.5 4.88,-119.5 180.38,-119.5 180.38,-83.5 4.88,-83.5"/>
<text text-anchor="middle" x="15.88" y="-96.7" font-family="Times New Roman,serif" font-size="14.00">a</text>
<polyline fill="none" stroke="black" points="26.88,-84 26.88,-119.5"/>
<text text-anchor="middle" x="64.88" y="-96.7" font-family="Times New Roman,serif" font-size="14.00">data2.0000</text>
<polyline fill="none" stroke="black" points="102.88,-84 102.88,-119.5"/>
<text text-anchor="middle" x="141.62" y="-96.7" font-family="Times New Roman,serif" font-size="14.00">grad6.0000</text>
</g>
<!-- 2650329063760* -->
<g id="node4" class="node">
<title>2650329063760*</title>
<ellipse fill="none" stroke="black" cx="248.25" cy="-73.5" rx="27" ry="18"/>
<text text-anchor="middle" x="248.25" y="-68.45" font-family="Times New Roman,serif" font-size="14.00">*</text>
</g>
<!-- 2650329065584&#45;&gt;2650329063760* -->
<g id="edge9" class="edge">
<title>2650329065584&#45;&gt;2650329063760*</title>
<path fill="none" stroke="black" d="M180.76,-85.62C191.33,-83.69 201.64,-81.81 210.86,-80.13"/>
<polygon fill="black" stroke="black" points="211.19,-83.63 220.4,-78.39 209.94,-76.74 211.19,-83.63"/>
</g>
<!-- 2650329063760 -->
<g id="node3" class="node">
<title>2650329063760</title>
<polygon fill="none" stroke="black" points="312.38,-55.5 312.38,-91.5 496.88,-91.5 496.88,-55.5 312.38,-55.5"/>
<text text-anchor="middle" x="323.38" y="-68.7" font-family="Times New Roman,serif" font-size="14.00">e</text>
<polyline fill="none" stroke="black" points="334.38,-56 334.38,-91.5"/>
<text text-anchor="middle" x="374.62" y="-68.7" font-family="Times New Roman,serif" font-size="14.00">data&#45;6.0000</text>
<polyline fill="none" stroke="black" points="414.88,-56 414.88,-91.5"/>
<text text-anchor="middle" x="455.88" y="-68.7" font-family="Times New Roman,serif" font-size="14.00">grad&#45;2.0000</text>
</g>
<!-- 2650329070960+ -->
<g id="node7" class="node">
<title>2650329070960+</title>
<ellipse fill="none" stroke="black" cx="561" cy="-45.5" rx="27" ry="18"/>
<text text-anchor="middle" x="561" y="-40.45" font-family="Times New Roman,serif" font-size="14.00">+</text>
</g>
<!-- 2650329063760&#45;&gt;2650329070960+ -->
<g id="edge7" class="edge">
<title>2650329063760&#45;&gt;2650329070960+</title>
<path fill="none" stroke="black" d="M497.21,-56.89C506.37,-55.23 515.25,-53.62 523.31,-52.15"/>
<polygon fill="black" stroke="black" points="523.76,-55.63 532.98,-50.4 522.51,-48.74 523.76,-55.63"/>
</g>
<!-- 2650329063760*&#45;&gt;2650329063760 -->
<g id="edge1" class="edge">
<title>2650329063760*&#45;&gt;2650329063760</title>
<path fill="none" stroke="black" d="M275.44,-73.5C282.9,-73.5 291.51,-73.5 300.67,-73.5"/>
<polygon fill="black" stroke="black" points="300.56,-77 310.56,-73.5 300.56,-70 300.56,-77"/>
</g>
<!-- 2650329064288 -->
<g id="node5" class="node">
<title>2650329064288</title>
<polygon fill="none" stroke="black" points="0,-28.5 0,-64.5 185.25,-64.5 185.25,-28.5 0,-28.5"/>
<text text-anchor="middle" x="11.38" y="-41.7" font-family="Times New Roman,serif" font-size="14.00">b</text>
<polyline fill="none" stroke="black" points="22.75,-29 22.75,-64.5"/>
<text text-anchor="middle" x="63" y="-41.7" font-family="Times New Roman,serif" font-size="14.00">data&#45;3.0000</text>
<polyline fill="none" stroke="black" points="103.25,-29 103.25,-64.5"/>
<text text-anchor="middle" x="144.25" y="-41.7" font-family="Times New Roman,serif" font-size="14.00">grad&#45;4.0000</text>
</g>
<!-- 2650329064288&#45;&gt;2650329063760* -->
<g id="edge4" class="edge">
<title>2650329064288&#45;&gt;2650329063760*</title>
<path fill="none" stroke="black" d="M185.65,-62.67C194.39,-64.21 202.86,-65.7 210.58,-67.05"/>
<polygon fill="black" stroke="black" points="209.7,-70.45 220.16,-68.74 210.91,-63.56 209.7,-70.45"/>
</g>
<!-- 2650329070960 -->
<g id="node6" class="node">
<title>2650329070960</title>
<polygon fill="none" stroke="black" points="624,-27.5 624,-63.5 804.75,-63.5 804.75,-27.5 624,-27.5"/>
<text text-anchor="middle" x="635.38" y="-40.7" font-family="Times New Roman,serif" font-size="14.00">d</text>
<polyline fill="none" stroke="black" points="646.75,-28 646.75,-63.5"/>
<text text-anchor="middle" x="684.75" y="-40.7" font-family="Times New Roman,serif" font-size="14.00">data4.0000</text>
<polyline fill="none" stroke="black" points="722.75,-28 722.75,-63.5"/>
<text text-anchor="middle" x="763.75" y="-40.7" font-family="Times New Roman,serif" font-size="14.00">grad&#45;2.0000</text>
</g>
<!-- 2650329070960&#45;&gt;2650329066448* -->
<g id="edge5" class="edge">
<title>2650329070960&#45;&gt;2650329066448*</title>
<path fill="none" stroke="black" d="M805.18,-61.52C813.89,-63.07 822.34,-64.58 830.05,-65.95"/>
<polygon fill="black" stroke="black" points="829.16,-69.35 839.62,-67.66 830.39,-62.46 829.16,-69.35"/>
</g>
<!-- 2650329070960+&#45;&gt;2650329070960 -->
<g id="edge2" class="edge">
<title>2650329070960+&#45;&gt;2650329070960</title>
<path fill="none" stroke="black" d="M588.37,-45.5C595.51,-45.5 603.7,-45.5 612.39,-45.5"/>
<polygon fill="black" stroke="black" points="612.11,-49 622.11,-45.5 612.11,-42 612.11,-49"/>
</g>
<!-- 2650329066448 -->
<g id="node8" class="node">
<title>2650329066448</title>
<polygon fill="none" stroke="black" points="930.75,-54.5 930.75,-90.5 1113,-90.5 1113,-54.5 930.75,-54.5"/>
<text text-anchor="middle" x="942.88" y="-67.7" font-family="Times New Roman,serif" font-size="14.00">L</text>
<polyline fill="none" stroke="black" points="955,-55 955,-90.5"/>
<text text-anchor="middle" x="995.25" y="-67.7" font-family="Times New Roman,serif" font-size="14.00">data&#45;8.0000</text>
<polyline fill="none" stroke="black" points="1035.5,-55 1035.5,-90.5"/>
<text text-anchor="middle" x="1074.25" y="-67.7" font-family="Times New Roman,serif" font-size="14.00">grad1.0000</text>
</g>
<!-- 2650329066448*&#45;&gt;2650329066448 -->
<g id="edge3" class="edge">
<title>2650329066448*&#45;&gt;2650329066448</title>
<path fill="none" stroke="black" d="M895.25,-72.5C902.29,-72.5 910.34,-72.5 918.88,-72.5"/>
<polygon fill="black" stroke="black" points="918.84,-76 928.84,-72.5 918.84,-69 918.84,-76"/>
</g>
<!-- 2650329065440 -->
<g id="node10" class="node">
<title>2650329065440</title>
<polygon fill="none" stroke="black" points="311.25,-0.5 311.25,-36.5 498,-36.5 498,-0.5 311.25,-0.5"/>
<text text-anchor="middle" x="322.25" y="-13.7" font-family="Times New Roman,serif" font-size="14.00">c</text>
<polyline fill="none" stroke="black" points="333.25,-1 333.25,-36.5"/>
<text text-anchor="middle" x="374.62" y="-13.7" font-family="Times New Roman,serif" font-size="14.00">data10.0000</text>
<polyline fill="none" stroke="black" points="416,-1 416,-36.5"/>
<text text-anchor="middle" x="457" y="-13.7" font-family="Times New Roman,serif" font-size="14.00">grad&#45;2.0000</text>
</g>
<!-- 2650329065440&#45;&gt;2650329070960+ -->
<g id="edge6" class="edge">
<title>2650329065440&#45;&gt;2650329070960+</title>
<path fill="none" stroke="black" d="M498.1,-34.67C506.97,-36.22 515.56,-37.73 523.37,-39.09"/>
<polygon fill="black" stroke="black" points="522.63,-42.52 533.08,-40.79 523.83,-35.62 522.63,-42.52"/>
</g>
</g>
</svg>
